<svg viewBox="0 0 350 71" fill="none" xmlns="http://www.w3.org/2000/svg">
<path d="M121.195 30.1285C120.174 28.2561 118.812 26.8944 117.11 25.8731C115.408 24.8518 113.365 24.5114 110.982 24.5114C108.429 24.5114 106.046 25.022 104.173 26.2136C102.131 27.4051 100.599 29.1072 99.4073 31.1499C98.2157 33.3627 97.7051 35.7457 97.7051 38.6394C97.7051 41.5331 98.2157 44.0864 99.4073 46.2992C100.599 48.5121 102.131 50.2143 104.173 51.2356C106.216 52.4271 108.599 52.9378 111.323 52.9378C114.727 52.9378 117.45 52.0867 119.493 50.2143C121.706 48.5121 123.068 45.9589 123.748 42.7247H108.769V36.4266H132.43V44.0864C131.919 47.1504 130.557 49.8738 128.685 52.5973C126.812 55.1506 124.259 57.1932 121.195 58.8954C118.131 60.4274 114.727 61.2785 110.982 61.2785C106.727 61.2785 102.982 60.2571 99.5775 58.3847C96.1731 56.5123 93.4496 53.7888 91.5772 50.5547C89.7048 47.3206 88.6835 43.4056 88.6835 38.9799C88.6835 34.7244 89.7048 30.8095 91.5772 27.4051C93.4496 24.0007 96.1731 21.2772 99.5775 19.4048C102.982 17.5324 106.727 16.5111 110.982 16.5111C115.918 16.5111 120.174 17.7026 123.748 20.0857C127.323 22.4687 129.876 25.8731 131.238 30.1285H121.195V30.1285Z" fill="inherit"/>
<path d="M138.728 33.8734C140.089 31.1499 141.962 29.1072 144.345 27.5753C146.728 26.0433 149.451 25.3625 152.345 25.3625C154.898 25.3625 157.111 25.8731 159.154 26.8944C161.026 27.9157 162.728 29.2775 163.75 30.8095V25.8731H172.601V60.5976H163.75V55.4911C162.558 57.1932 161.026 58.3848 159.154 59.5763C157.111 60.5976 154.898 61.1082 152.345 61.1082C149.451 61.1082 146.728 60.4274 144.345 58.8954C141.962 57.3635 140.089 55.3208 138.728 52.5973C137.366 49.8738 136.685 46.8099 136.685 43.2353C136.685 39.6608 137.366 36.5968 138.728 33.8734ZM162.558 37.7884C161.707 36.2564 160.516 35.0649 159.154 34.2138C157.792 33.3627 156.26 33.0223 154.558 33.0223C152.856 33.0223 151.494 33.3627 150.132 34.2138C148.77 35.0649 147.579 36.0862 146.728 37.6182C145.877 39.1501 145.366 41.0225 145.366 43.0651C145.366 45.1077 145.877 46.9802 146.728 48.5121C147.579 50.0441 148.77 51.2356 150.132 52.0867C151.494 52.9378 153.026 53.2782 154.558 53.2782C156.26 53.2782 157.622 52.9378 159.154 52.0867C160.516 51.2356 161.707 50.0441 162.558 48.5121C163.409 46.9802 163.75 45.1077 163.75 43.0651C163.92 41.1927 163.409 39.3203 162.558 37.7884Z" fill="inherit"/>
<path d="M189.963 14.2983V60.5976H181.282V14.2983H189.963Z" fill="inherit"/>
<path d="M207.496 14.2983V60.5976H198.815V14.2983H207.496Z" fill="inherit"/>
<path d="M248.007 45.9588H222.645C222.815 48.5121 223.666 50.3845 225.198 51.9165C226.73 53.2782 228.603 53.9591 230.816 53.9591C234.05 53.9591 236.433 52.5973 237.794 49.7036H247.156C246.135 53.108 244.263 55.8315 241.369 57.8741C238.475 60.0869 235.071 61.1082 230.986 61.1082C227.581 61.1082 224.688 60.4274 221.964 58.8954C219.241 57.3635 217.198 55.3208 215.836 52.5973C214.304 49.8738 213.624 46.8099 213.624 43.2353C213.624 39.6608 214.304 36.4266 215.836 33.8734C217.368 31.1499 219.411 29.1072 221.964 27.5753C224.517 26.0433 227.581 25.3625 230.986 25.3625C234.22 25.3625 237.284 26.0434 239.837 27.4051C242.39 28.7668 244.433 30.8095 245.965 33.3627C247.327 35.916 248.178 38.9799 248.178 42.3843C248.178 43.746 248.178 44.9375 248.007 45.9588ZM239.156 40.0012C239.156 37.7884 238.305 35.916 236.773 34.5542C235.241 33.1925 233.199 32.5116 230.986 32.5116C228.773 32.5116 227.071 33.1925 225.539 34.5542C224.007 35.916 223.156 37.6182 222.815 40.0012H239.156Z" fill="inherit"/>
<path d="M267.753 27.0646C269.625 26.0433 271.668 25.5327 274.051 25.5327V34.7245H271.668C268.944 34.7245 266.902 35.4053 265.37 36.5969C264.008 37.9586 263.327 40.1714 263.327 43.4056V60.5976H254.646V25.8731H263.327V31.3201C264.519 29.4477 266.051 28.086 267.753 27.0646Z" fill="inherit"/>
<path d="M280.519 20.4262C279.498 19.4048 278.987 18.2133 278.987 16.8516C278.987 15.3196 279.498 14.1281 280.519 13.277C281.54 12.2557 282.902 11.745 284.434 11.745C285.966 11.745 287.328 12.2557 288.349 13.277C289.37 14.2983 289.881 15.4898 289.881 16.8516C289.881 18.3835 289.37 19.5751 288.349 20.4262C287.328 21.4475 285.966 21.9581 284.434 21.9581C282.902 21.9581 281.54 21.2772 280.519 20.4262ZM288.69 26.0433V60.7678H280.009V26.0433H288.69Z" fill="inherit"/>
<path d="M302.988 59.5763C300.775 58.555 298.903 57.1932 297.711 55.4911C296.52 53.7889 295.669 51.7462 295.498 49.7036H304.35C304.52 51.0654 305.201 52.0867 306.392 52.9378C307.584 53.7889 308.946 54.2995 310.648 54.2995C312.35 54.2995 313.541 53.9591 314.563 53.2782C315.584 52.5973 315.925 51.7462 315.925 50.7249C315.925 49.5334 315.414 48.6823 314.222 48.1717C313.031 47.661 311.329 46.9801 308.775 46.2993C306.222 45.6184 304.009 45.1078 302.477 44.4269C300.775 43.746 299.413 42.7247 298.222 41.3629C297.03 40.0012 296.52 38.1288 296.52 35.7458C296.52 33.8734 297.03 32.001 298.222 30.469C299.243 28.937 300.945 27.5753 302.988 26.7242C305.031 25.8731 307.414 25.3625 310.307 25.3625C314.393 25.3625 317.797 26.3838 320.18 28.4264C322.563 30.469 323.925 33.1925 324.265 36.7671H315.925C315.754 35.4053 315.244 34.2138 314.222 33.5329C313.201 32.6818 311.839 32.3414 310.137 32.3414C308.605 32.3414 307.414 32.6818 306.563 33.1925C305.711 33.7032 305.201 34.5542 305.201 35.5755C305.201 36.7671 305.711 37.6182 306.903 38.299C308.094 38.9799 309.967 39.4906 312.35 40.1714C314.903 40.8523 316.946 41.3629 318.478 42.0438C320.18 42.7247 321.542 43.746 322.733 45.1078C323.925 46.4695 324.606 48.3419 324.606 50.7249C324.606 52.7675 324.095 54.4697 322.903 56.1719C321.712 57.7039 320.18 59.0656 318.137 59.9167C316.095 60.7678 313.712 61.2785 310.988 61.2785C307.754 61.1082 305.201 60.5976 302.988 59.5763Z" fill="inherit"/>
<path d="M341.627 33.1925V49.8738C341.627 51.0654 341.968 51.9164 342.478 52.4271C342.989 52.9378 344.01 53.2782 345.372 53.2782H349.457V60.5976H344.01C336.691 60.5976 332.946 57.023 332.946 49.8738V33.1925H328.861V26.0433H332.946V17.5324H341.798V26.0433H349.628V33.1925H341.627Z" fill="inherit"/>
<path d="M59.7465 54.1293H49.0228V43.4056C49.0228 37.4479 53.7889 32.6818 59.7465 32.6818C65.7041 32.6818 70.4702 37.4479 70.4702 43.4056C70.4702 49.3632 65.5339 54.1293 59.7465 54.1293ZM54.1293 49.0227H59.7465C62.8104 49.0227 65.3637 46.4695 65.3637 43.4056C65.3637 40.3416 62.8104 37.7883 59.7465 37.7883C56.6826 37.7883 54.1293 40.3416 54.1293 43.4056V49.0227Z" fill="inherit"/>
<path d="M43.4055 70.3H27.0646C21.107 70.3 16.3409 65.5339 16.3409 59.5763V48.8525H54.1293V59.5763C54.1293 65.5339 49.193 70.3 43.4055 70.3ZM21.4474 54.1293V59.7465C21.4474 62.8104 24.0007 65.3637 27.0646 65.3637H43.4055C46.4695 65.3637 49.0227 62.8104 49.0227 59.7465V54.1293H21.4474Z" fill="inherit"/>
<path d="M21.4474 54.1293H10.7237C4.76608 54.1293 0 49.3632 0 43.4056V27.0646C0 21.107 4.76608 16.3409 10.7237 16.3409H21.4474V54.1293ZM10.7237 21.4475C7.65979 21.4475 5.10654 24.0007 5.10654 27.0646V43.4056C5.10654 46.4695 7.65979 49.0227 10.7237 49.0227H16.3409V21.4475H10.7237V21.4475Z" fill="inherit"/>
<path d="M43.4055 21.4475H16.3409V10.7237C16.3409 4.76608 21.107 0 27.0646 0H43.4055C49.3632 0 54.1293 4.76608 54.1293 10.7237C54.1293 16.6813 49.193 21.4475 43.4055 21.4475ZM21.4474 16.3409H43.4055C46.4695 16.3409 49.0227 13.7876 49.0227 10.7237C49.0227 7.65979 46.4695 5.10654 43.4055 5.10654H27.0646C24.0007 5.10654 21.4474 7.65979 21.4474 10.7237V16.3409Z" fill="inherit"/>
</svg>